<?xml version="1.0" ?><svg height="64" viewBox="0 0 64 64" width="64" xmlns="http://www.w3.org/2000/svg"><defs><style>.cls-1{fill:none;stroke:#000;stroke-linejoin:round;stroke-width:2px;}</style></defs><title/><g data-name="21-Network Sharing and Solution" id="_21-Network_Sharing_and_Solution"><path class="cls-1" d="M5,63H3a2,2,0,0,1-2-2V3A2,2,0,0,1,3,1H61a2,2,0,0,1,2,2V61a2,2,0,0,1-2,2H59"/><line class="cls-1" x1="28" x2="63" y1="9" y2="9"/><line class="cls-1" x1="4" x2="6" y1="5" y2="5"/><line class="cls-1" x1="8" x2="10" y1="5" y2="5"/><line class="cls-1" x1="58" x2="60" y1="5" y2="5"/><path class="cls-1" d="M25,19V11a2,2,0,0,0-2-2H7V49a2,2,0,0,0,2,2H29"/><path class="cls-1" d="M25,15H48a.979.979,0,0,1,1,1v3h6a2,2,0,0,1,2,2V49a2,2,0,0,1-2,2H35"/><polyline class="cls-1" points="16 19 29 19 49 19"/><polyline class="cls-1" points="11 43 11 47 15 47"/><line class="cls-1" x1="32" x2="32" y1="35" y2="57"/><rect class="cls-1" height="6" width="8" x="28" y="57"/><rect class="cls-1" height="6" width="8" x="48" y="57"/><rect class="cls-1" height="6" width="8" x="8" y="57"/><line class="cls-1" x1="36" x2="48" y1="60" y2="60"/><line class="cls-1" x1="16" x2="28" y1="60" y2="60"/><circle class="cls-1" cx="32" cy="31" r="4"/><circle class="cls-1" cx="43" cy="37" r="4"/><circle class="cls-1" cx="21" cy="37" r="4"/><path class="cls-1" d="M35,45h6a1.959,1.959,0,0,0,2-2V41"/><path class="cls-1" d="M29,45H23a1.959,1.959,0,0,1-2-2V41"/></g></svg>