<?xml version="1.0" ?><svg height="64" viewBox="0 0 64 64" width="64" xmlns="http://www.w3.org/2000/svg"><defs><style>.cls-1{fill:none;stroke:#000;stroke-linejoin:round;stroke-width:2px;}</style></defs><title/><g data-name="25-SEO Research" id="_25-SEO_Research"><rect class="cls-1" height="62" rx="2" ry="2" width="62" x="1" y="1"/><line class="cls-1" x1="1" x2="63" y1="9" y2="9"/><line class="cls-1" x1="4" x2="6" y1="5" y2="5"/><line class="cls-1" x1="8" x2="10" y1="5" y2="5"/><line class="cls-1" x1="58" x2="60" y1="5" y2="5"/><path class="cls-1" d="M50,32a18,18,0,0,1-36,0"/><line class="cls-1" x1="32" x2="32" y1="50" y2="55"/><rect class="cls-1" height="8" width="8" x="28" y="55"/><line class="cls-1" x1="25" x2="39" y1="58" y2="58"/><path class="cls-1" d="M45,32a13,13,0,0,1-26,0"/><polyline class="cls-1" points="9 13 5 13 5 17"/><polyline class="cls-1" points="55 59 59 59 59 55"/><path class="cls-1" d="M24,18V15a2,2,0,0,0-2-2H16a2,2,0,0,0-2,2v4a2,2,0,0,0,2,2h6a2,2,0,0,1,2,2v4a2,2,0,0,1-2,2H16a2,2,0,0,1-2-2V24"/><polyline class="cls-1" points="37 13 29 13 29 29 37 29"/><line class="cls-1" x1="29" x2="37" y1="21" y2="21"/><rect class="cls-1" height="16" rx="2" ry="2" width="9" x="41" y="13"/><line class="cls-1" x1="31" x2="33" y1="35" y2="35"/><line class="cls-1" x1="36" x2="38" y1="35" y2="35"/><line class="cls-1" x1="26" x2="28" y1="35" y2="35"/></g></svg>